<svg xmlns="http://www.w3.org/2000/svg" width="56" height="28"><path d="M 54.907 15.553 C 55.574 15.973 55.607 16.603 54.907 16.957 L 50.336 19.615 C 49.67 20.002 48.579 20.003 47.912 19.618 L 29.227 8.82 C 28.561 8.435 27.47 8.436 26.804 8.823 L 22.235 11.479 C 21.57 11.866 21.571 12.529 22.235 12.882 L 40.923 23.662 C 41.591 24.082 41.623 24.712 40.923 25.066 L 36.352 27.724 C 35.686 28.111 34.595 28.112 33.928 27.727 L 15.245 16.94 C 14.578 16.555 13.488 16.556 12.822 16.944 L 8.25 19.6 C 7.584 19.987 6.495 19.989 5.828 19.604 L 1.213 16.94 C 0.546 16.555 0.545 15.924 1.211 15.537 L 19.765 4.767 L 22.186 3.36 L 26.757 0.704 C 27.424 0.35 28.49 0.35 29.19 0.7 L 33.804 3.364 C 34.472 3.784 35.554 4.344 36.254 4.764 Z" fill="rgb(255, 255, 255)"></path></svg>