<svg xmlns="http://www.w3.org/2000/svg" width="80" height="80"><path d="M 0 40 C 0 6.8 6.8 0 40 0 C 73.2 0 80 6.8 80 40 C 80 73.2 73.2 80 40 80 C 6.8 80 0 73.2 0 40" fill="rgb(34, 34, 34)"></path><path d="M 53.09 34.848 C 53.09 34.848 49.284 46.669 48.973 47.645 C 48.86 46.641 46.068 25.424 46.068 25.424 C 39.582 25.424 36.113 29.997 34.28 34.82 C 34.28 34.82 29.654 46.669 29.26 47.672 C 29.231 46.753 28.555 34.96 28.555 34.96 C 28.16 29.048 22.689 25.452 18.261 25.452 L 23.619 57.598 C 30.416 57.57 34.082 53.026 36 48.202 C 36 48.202 40.089 37.748 40.258 37.273 C 40.287 37.719 43.191 57.598 43.191 57.598 C 50.016 57.598 53.683 53.332 55.657 48.676 L 65.217 25.452 C 58.477 25.452 54.924 29.997 53.09 34.848 Z" fill="rgb(255, 255, 255)"></path></svg>