<svg xmlns="http://www.w3.org/2000/svg" width="80" height="80"><path d="M 0 40 C 0 6.8 6.8 0 40 0 C 73.2 0 80 6.8 80 40 C 80 73.2 73.2 80 40 80 C 6.8 80 0 73.2 0 40" fill="rgb(34, 34, 34)"></path><g transform="translate(17.129 17.129)"><path d="M 0 23 C 0 32.104 5.291 39.971 12.963 43.7 L 1.991 13.639 C 0.676 16.584 -0.002 19.774 0 23 Z M 38.528 21.839 C 38.528 18.996 37.506 17.028 36.631 15.496 C 35.465 13.601 34.372 11.997 34.372 10.102 C 34.372 7.988 35.976 6.019 38.234 6.019 C 38.336 6.019 38.433 6.032 38.532 6.038 C 34.44 2.289 28.988 0 23 0 C 14.965 0 7.896 4.123 3.783 10.367 C 4.323 10.383 4.831 10.395 5.263 10.395 C 7.669 10.395 11.393 10.103 11.393 10.103 C 12.633 10.03 12.779 11.851 11.54 11.997 C 11.54 11.997 10.294 12.144 8.908 12.217 L 17.284 37.13 L 22.317 22.034 L 18.734 12.216 C 17.495 12.143 16.322 11.997 16.322 11.997 C 15.082 11.924 15.228 10.029 16.467 10.102 C 16.467 10.102 20.266 10.394 22.526 10.394 C 24.931 10.394 28.655 10.102 28.655 10.102 C 29.896 10.029 30.042 11.85 28.803 11.997 C 28.803 11.997 27.554 12.143 26.17 12.216 L 34.482 36.941 L 36.776 29.274 C 37.771 26.093 38.528 23.808 38.528 21.839 Z" fill="rgb(255, 255, 255)"></path><path d="M 23.404 25.011 L 16.503 45.064 C 18.613 45.686 20.801 46.001 23 46.001 C 25.679 46.001 28.247 45.538 30.638 44.698 C 30.575 44.597 30.52 44.491 30.475 44.381 Z M 43.182 11.965 C 43.281 12.697 43.337 13.484 43.337 14.33 C 43.337 16.664 42.901 19.287 41.588 22.568 L 34.563 42.881 C 41.401 38.893 46 31.485 46 23 C 46 19.001 44.979 15.241 43.182 11.965 Z" fill="rgb(255, 255, 255)"></path></g></svg>