<svg xmlns="http://www.w3.org/2000/svg" width="80" height="80"><path d="M 0 40 C 0 6.8 6.8 0 40 0 C 73.2 0 80 6.8 80 40 C 80 73.2 73.2 80 40 80 C 6.8 80 0 73.2 0 40" fill="rgb(34, 34, 34)"></path><path d="M 45.932 29.516 C 45.113 28.697 43.784 28.697 42.966 29.516 L 29.617 42.865 C 27.978 44.503 25.322 44.503 23.684 42.865 C 22.045 41.227 22.045 38.571 23.684 36.932 L 36.776 23.84 C 35.138 22.202 32.481 22.202 30.843 23.84 L 20.717 33.966 C 17.441 37.243 17.441 42.555 20.717 45.832 C 23.994 49.109 29.306 49.109 32.583 45.832 L 45.932 32.483 C 46.75 31.664 46.75 30.335 45.932 29.516 Z M 50.381 25.067 C 47.104 21.79 41.793 21.79 38.516 25.067 L 25.167 38.415 C 24.349 39.234 24.349 40.563 25.167 41.382 C 25.986 42.201 27.314 42.201 28.133 41.382 L 41.483 28.034 C 43.121 26.395 45.777 26.395 47.415 28.034 C 48.234 28.852 49.562 28.852 50.381 28.034 C 51.201 27.214 51.201 25.886 50.381 25.067 Z M 54.831 38.415 C 54.012 37.597 52.683 37.597 51.864 38.415 L 38.516 51.764 C 36.877 53.402 34.221 53.402 32.583 51.764 C 31.764 50.945 30.436 50.945 29.617 51.764 C 28.797 52.583 28.797 53.912 29.617 54.73 C 32.893 58.007 38.206 58.007 41.483 54.73 L 54.831 41.382 C 55.65 40.563 55.65 39.234 54.831 38.415 Z M 59.281 33.966 C 56.004 30.69 50.692 30.69 47.416 33.966 L 34.066 47.315 C 33.247 48.133 33.247 49.463 34.066 50.281 C 34.886 51.101 36.214 51.101 37.033 50.281 L 50.381 36.933 C 52.019 35.294 54.676 35.294 56.314 36.933 C 57.952 38.571 57.952 41.227 56.314 42.865 L 43.222 55.957 C 44.86 57.595 47.516 57.595 49.155 55.957 L 59.281 45.832 C 62.557 42.554 62.557 37.243 59.281 33.966 Z" fill="rgb(255, 255, 255)"></path></svg>