<svg xmlns="http://www.w3.org/2000/svg" width="80" height="80"><path d="M 0 40 C 0 6.8 6.8 0 40 0 C 73.2 0 80 6.8 80 40 C 80 73.2 73.2 80 40 80 C 6.8 80 0 73.2 0 40" fill="rgb(34, 34, 34)"></path><g transform="translate(16.333 19.08)"><path d="M 19.527 21.391 C 19.527 18.909 21.53 16.897 24 16.897 C 26.47 16.897 28.473 18.909 28.473 21.391 C 28.473 23.873 26.47 25.886 24 25.886 C 21.53 25.886 19.527 23.873 19.527 21.391 Z" fill="rgb(255, 255, 255)"></path><g><path d="M 0 21.391 C 0 16.306 10.745 12.183 24 12.183 C 37.255 12.183 48 16.306 48 21.391 C 48 26.477 37.255 30.599 24 30.599 C 10.745 30.599 0 26.477 0 21.391 Z" fill="transparent" stroke-width="2.67" stroke="rgb(255, 255, 255)" stroke-miterlimit="10"></path><path d="M 12 0.506 C 16.383 -2.037 25.309 5.253 31.936 16.787 C 38.563 28.322 40.383 39.734 36 42.277 C 31.617 44.819 22.691 37.53 16.064 25.995 C 9.437 14.461 7.617 3.049 12 0.506 Z" fill="transparent" stroke-width="2.67" stroke="rgb(255, 255, 255)" stroke-miterlimit="10"></path><path d="M 36 0.506 C 40.383 3.049 38.563 14.461 31.936 25.995 C 25.309 37.53 16.383 44.819 12 42.277 C 7.617 39.734 9.437 28.322 16.064 16.787 C 22.691 5.253 31.617 -2.037 36 0.506 Z" fill="transparent" stroke-width="2.67" stroke="rgb(255, 255, 255)" stroke-miterlimit="10"></path></g></g></svg>