<svg xmlns="http://www.w3.org/2000/svg" width="10" height="16"><path d="M 4.851 0.236 C 4.815 0.32 3.718 2.086 2.414 4.16 C 1.111 6.235 0.033 7.96 0.02 7.993 C 0.002 8.036 0.711 8.459 2.504 9.475 L 5.012 10.896 L 7.519 9.474 C 9.321 8.452 10.02 8.035 10.002 7.991 C 9.912 7.765 5.036 0.085 4.982 0.085 C 4.947 0.085 4.888 0.153 4.851 0.236 M 0.025 9.358 C 0.122 9.517 4.991 16.086 5.011 16.085 C 5.045 16.084 10.023 9.339 10.004 9.32 C 9.986 9.303 5.332 11.931 5.138 12.068 L 5.02 12.152 L 2.611 10.788 C 1.77 10.314 0.93 9.837 0.093 9.357 C -0.006 9.296 -0.013 9.296 0.025 9.358" fill="rgb(255, 255, 255)"></path></svg>