<svg xmlns="http://www.w3.org/2000/svg" width="80" height="80"><path d="M 0 40 C 0 6.8 6.8 0 40 0 C 73.2 0 80 6.8 80 40 C 80 73.2 73.2 80 40 80 C 6.8 80 0 73.2 0 40" fill="rgb(34, 34, 34)"></path><path d="M 57.678 52.166 L 35.694 62.678 C 35.558 62.746 35.406 62.779 35.254 62.779 C 35.068 62.779 34.882 62.729 34.713 62.628 C 34.417 62.443 34.24 62.123 34.24 61.769 L 34.24 51.359 L 22.365 46.41 C 21.984 46.25 21.739 45.888 21.739 45.476 L 21.739 18.14 C 21.739 17.795 21.917 17.466 22.212 17.281 C 22.508 17.096 22.88 17.079 23.193 17.222 L 46.048 28.147 L 56.807 23.004 C 57.12 22.853 57.492 22.878 57.788 23.063 C 58.083 23.248 58.261 23.568 58.261 23.922 L 58.261 51.258 C 58.252 51.645 58.033 51.998 57.678 52.166 Z M 23.768 19.747 L 23.768 44.802 L 34.24 49.17 L 34.24 44.137 L 27.656 41.495 C 27.14 41.284 26.886 40.695 27.089 40.182 C 27.301 39.66 27.892 39.416 28.408 39.618 L 34.24 41.958 L 34.24 37.825 L 27.656 35.183 C 27.14 34.972 26.886 34.383 27.089 33.87 C 27.301 33.348 27.892 33.104 28.408 33.306 L 34.24 35.645 L 34.24 34.442 C 34.24 34.055 34.46 33.701 34.815 33.533 L 36.319 32.809 L 27.605 28.862 C 27.098 28.635 26.87 28.029 27.098 27.524 C 27.326 27.019 27.935 26.792 28.442 27.019 L 38.694 31.673 L 43.689 29.283 Z M 56.224 25.529 L 36.268 35.073 L 36.268 60.17 L 56.224 50.618 Z M 40.08 38.591 L 51.516 33.087 C 52.023 32.843 52.623 33.053 52.868 33.558 C 53.114 34.063 52.902 34.669 52.395 34.905 L 40.959 40.409 C 40.816 40.476 40.663 40.51 40.52 40.51 C 40.139 40.51 39.784 40.3 39.607 39.938 C 39.37 39.441 39.582 38.835 40.08 38.591 Z M 40.08 44.903 L 51.516 39.399 C 52.023 39.155 52.623 39.365 52.868 39.87 C 53.114 40.375 52.902 40.981 52.395 41.217 L 40.959 46.721 C 40.816 46.789 40.663 46.822 40.52 46.822 C 40.139 46.822 39.784 46.612 39.607 46.25 C 39.37 45.745 39.582 45.147 40.08 44.903 Z M 40.08 51.207 L 51.516 45.703 C 52.023 45.459 52.623 45.669 52.868 46.174 C 53.114 46.679 52.902 47.285 52.395 47.521 L 40.959 53.025 C 40.816 53.092 40.663 53.126 40.52 53.126 C 40.139 53.126 39.784 52.916 39.607 52.554 C 39.37 52.057 39.582 51.451 40.08 51.207 Z" fill="rgb(255, 255, 255)" stroke-width="0.87" stroke="rgb(255, 255, 255)" stroke-miterlimit="10"></path></svg>