<svg xmlns="http://www.w3.org/2000/svg" width="80" height="80"><path d="M 0 40 C 0 6.8 6.8 0 40 0 C 73.2 0 80 6.8 80 40 C 80 73.2 73.2 80 40 80 C 6.8 80 0 73.2 0 40" fill="rgb(34, 34, 34)"></path><path d="M 58.036 37.402 C 57.72 36.791 57.088 36.408 56.399 36.413 L 42.003 36.413 L 43.607 22.405 C 43.693 21.605 43.227 20.848 42.475 20.563 C 41.718 20.264 40.854 20.492 40.345 21.126 L 22.083 44.204 C 21.661 44.735 21.587 45.464 21.895 46.069 C 22.202 46.678 22.838 47.062 23.535 47.062 L 37.931 47.062 L 36.33 61.067 C 36.239 61.858 36.701 62.613 37.462 62.911 C 38.219 63.211 39.083 62.983 39.593 62.348 L 57.851 39.271 C 58.274 38.738 58.348 38.008 58.04 37.402 Z" fill="rgb(255, 255, 255)"></path></svg>