<svg xmlns="http://www.w3.org/2000/svg" width="24" height="24"><path d="M 24 12 C 24 18.627 18.627 24 12 24 C 5.373 24 0 18.627 0 12 C 0 5.373 5.373 0 12 0 C 18.629 0 24 5.373 24 12 Z" fill="rgb(13, 13, 13)"></path><path d="M 5.92 12.403 L 5.972 12.322 L 9.094 7.438 C 9.115 7.405 9.152 7.386 9.191 7.389 C 9.231 7.392 9.265 7.416 9.281 7.452 C 9.803 8.621 10.253 10.074 10.042 10.979 C 9.952 11.351 9.705 11.856 9.428 12.322 C 9.392 12.39 9.353 12.456 9.311 12.52 C 9.291 12.55 9.257 12.567 9.222 12.567 L 6.011 12.567 C 5.972 12.568 5.936 12.547 5.917 12.512 C 5.898 12.478 5.899 12.436 5.92 12.403 Z" fill="rgb(255, 255, 255)"></path><path d="M 19.835 13.311 L 19.835 14.084 C 19.834 14.128 19.808 14.167 19.768 14.185 C 19.526 14.288 18.699 14.668 18.355 15.146 C 17.477 16.368 16.807 18.115 15.307 18.115 L 9.053 18.115 C 6.837 18.115 5.04 16.313 5.04 14.089 L 5.04 14.017 C 5.04 13.958 5.088 13.91 5.147 13.91 L 8.634 13.91 C 8.703 13.91 8.754 13.974 8.747 14.042 C 8.723 14.269 8.765 14.501 8.872 14.711 C 9.079 15.129 9.505 15.394 9.972 15.394 L 11.698 15.394 L 11.698 14.047 L 9.991 14.047 C 9.951 14.046 9.914 14.023 9.895 13.987 C 9.877 13.951 9.88 13.907 9.903 13.874 C 9.921 13.846 9.942 13.816 9.964 13.783 C 10.187 13.462 10.394 13.132 10.586 12.791 C 10.742 12.518 10.894 12.226 11.016 11.932 C 11.041 11.879 11.061 11.825 11.08 11.772 C 11.114 11.678 11.148 11.591 11.173 11.503 C 11.197 11.429 11.217 11.351 11.237 11.279 C 11.295 11.03 11.319 10.766 11.319 10.492 C 11.319 10.385 11.314 10.273 11.305 10.166 C 11.3 10.048 11.285 9.931 11.27 9.814 C 11.258 9.709 11.242 9.605 11.222 9.501 C 11.196 9.343 11.163 9.187 11.123 9.033 L 11.11 8.973 C 11.08 8.866 11.055 8.764 11.021 8.657 C 10.926 8.328 10.816 8.004 10.693 7.685 C 10.649 7.565 10.602 7.446 10.551 7.329 C 10.478 7.152 10.405 6.992 10.337 6.841 C 10.302 6.771 10.273 6.709 10.243 6.644 C 10.21 6.572 10.176 6.501 10.141 6.43 C 10.116 6.377 10.087 6.327 10.068 6.278 L 9.857 5.889 C 9.844 5.865 9.846 5.835 9.863 5.813 C 9.88 5.792 9.908 5.782 9.935 5.789 L 11.254 6.146 L 11.258 6.146 C 11.26 6.146 11.261 6.147 11.263 6.147 L 11.437 6.195 L 11.627 6.25 L 11.698 6.27 L 11.698 5.486 C 11.698 5.107 12.001 4.8 12.376 4.8 C 12.563 4.8 12.733 4.877 12.855 5.001 C 12.978 5.126 13.054 5.296 13.054 5.486 L 13.054 6.649 L 13.195 6.689 C 13.206 6.692 13.217 6.698 13.227 6.705 C 13.261 6.731 13.31 6.769 13.373 6.816 C 13.423 6.855 13.476 6.903 13.54 6.953 C 13.667 7.055 13.818 7.187 13.985 7.338 C 14.029 7.377 14.073 7.416 14.112 7.456 C 14.351 7.676 14.579 7.907 14.796 8.149 C 14.86 8.221 14.923 8.295 14.987 8.373 C 15.051 8.452 15.119 8.53 15.178 8.607 C 15.256 8.711 15.34 8.818 15.413 8.93 C 15.447 8.983 15.487 9.037 15.52 9.09 C 15.614 9.232 15.696 9.379 15.775 9.526 C 15.808 9.594 15.843 9.667 15.873 9.74 C 15.96 9.936 16.029 10.136 16.073 10.336 C 16.087 10.379 16.097 10.426 16.102 10.468 L 16.102 10.477 C 16.117 10.537 16.122 10.599 16.126 10.664 C 16.147 10.869 16.135 11.077 16.092 11.279 C 16.073 11.366 16.048 11.452 16.019 11.537 C 15.99 11.62 15.96 11.708 15.922 11.79 C 15.847 11.965 15.759 12.133 15.657 12.294 C 15.623 12.353 15.584 12.415 15.545 12.475 C 15.501 12.538 15.457 12.597 15.418 12.655 C 15.363 12.73 15.306 12.804 15.246 12.875 C 15.195 12.948 15.139 13.018 15.08 13.085 C 14.997 13.182 14.918 13.275 14.835 13.364 C 14.786 13.423 14.734 13.48 14.679 13.534 C 14.626 13.593 14.572 13.646 14.522 13.695 C 14.44 13.778 14.371 13.842 14.313 13.895 L 14.177 14.019 C 14.157 14.037 14.131 14.047 14.105 14.047 L 13.054 14.047 L 13.054 15.394 L 14.376 15.394 C 14.672 15.394 14.953 15.289 15.179 15.097 C 15.257 15.029 15.596 14.736 15.997 14.293 C 16.011 14.278 16.028 14.267 16.048 14.262 L 19.698 13.207 C 19.731 13.198 19.765 13.204 19.792 13.225 C 19.819 13.245 19.835 13.277 19.835 13.311 Z" fill="rgb(255, 255, 255)"></path></svg>