<svg xmlns="http://www.w3.org/2000/svg" width="80" height="80"><path d="M 0 40 C 0 6.8 6.8 0 40 0 C 73.2 0 80 6.8 80 40 C 80 73.2 73.2 80 40 80 C 6.8 80 0 73.2 0 40" fill="rgb(34, 34, 34)"></path><g transform="translate(20.012 17.243)"><path d="M 34.959 8.837 C 34.927 8.609 34.728 8.482 34.562 8.469 C 33.345 8.377 32.127 8.286 30.909 8.196 C 30.909 8.196 28.486 5.791 28.22 5.525 C 27.954 5.259 27.434 5.34 27.232 5.399 C 27.203 5.408 26.703 5.562 25.876 5.818 C 25.067 3.489 23.639 1.349 21.126 1.349 C 21.056 1.349 20.985 1.352 20.913 1.356 C 20.199 0.411 19.313 0 18.549 0 C 12.695 0 9.898 7.317 9.021 11.036 C 6.747 11.74 5.131 12.241 4.924 12.306 C 3.655 12.705 3.614 12.745 3.448 13.941 C 3.322 14.846 0 40.536 0 40.536 L 25.887 45.386 L 39.914 42.352 C 39.914 42.352 34.99 9.065 34.959 8.837 Z M 24.446 6.26 L 22.255 6.938 C 22.256 6.784 22.257 6.632 22.257 6.466 C 22.257 5.018 22.056 3.853 21.733 2.929 C 23.028 3.092 23.891 4.565 24.446 6.26 Z M 20.127 3.216 C 20.487 4.118 20.721 5.413 20.721 7.159 C 20.721 7.249 20.72 7.33 20.72 7.413 C 19.295 7.854 17.747 8.333 16.196 8.814 C 17.067 5.452 18.7 3.829 20.127 3.216 Z M 18.388 1.57 C 18.641 1.57 18.895 1.656 19.139 1.823 C 17.263 2.706 15.252 4.929 14.402 9.369 L 10.827 10.476 C 11.821 7.09 14.183 1.57 18.388 1.57 Z" fill="rgb(255, 255, 255)"></path><path d="M 34.562 8.469 C 33.345 8.377 32.127 8.286 30.909 8.196 C 30.909 8.196 28.486 5.791 28.22 5.525 C 28.12 5.426 27.986 5.375 27.846 5.353 L 25.888 45.385 L 39.914 42.352 C 39.914 42.352 34.99 9.065 34.959 8.837 C 34.927 8.609 34.727 8.482 34.562 8.469" fill="rgb(129, 136, 146)"></path><path d="M 21.126 16.218 L 19.396 21.362 C 19.396 21.362 17.881 20.554 16.023 20.554 C 13.3 20.554 13.163 22.262 13.163 22.693 C 13.163 25.042 19.288 25.943 19.288 31.446 C 19.288 35.775 16.542 38.563 12.839 38.563 C 8.395 38.563 6.122 35.798 6.122 35.798 L 7.312 31.867 C 7.312 31.867 9.648 33.873 11.619 33.873 C 12.907 33.873 13.431 32.859 13.431 32.118 C 13.431 29.053 8.406 28.916 8.406 23.88 C 8.406 19.642 11.449 15.54 17.59 15.54 C 19.957 15.54 21.126 16.218 21.126 16.218" fill="rgb(13, 13, 13)"></path></g></svg>