<svg xmlns="http://www.w3.org/2000/svg" width="80" height="80"><path d="M 0 40 C 0 6.8 6.8 0 40 0 C 73.2 0 80 6.8 80 40 C 80 73.2 73.2 80 40 80 C 6.8 80 0 73.2 0 40" fill="rgb(34, 34, 34)"></path><path d="M 55.137 59.582 C 56.36 61.578 57.95 63.045 60.764 63.045 C 63.127 63.045 64.637 61.864 64.637 60.232 C 64.637 58.276 63.085 57.584 60.484 56.446 L 59.058 55.834 C 54.943 54.081 52.208 51.884 52.208 47.241 C 52.208 42.963 55.468 39.707 60.561 39.707 C 64.188 39.707 66.795 40.969 68.673 44.273 L 64.232 47.125 C 63.254 45.372 62.199 44.681 60.561 44.681 C 58.891 44.681 57.832 45.741 57.832 47.125 C 57.832 48.836 58.892 49.529 61.339 50.588 L 62.765 51.199 C 67.611 53.277 70.347 55.396 70.347 60.159 C 70.347 65.294 66.313 68.107 60.896 68.107 C 55.599 68.107 52.177 65.583 50.502 62.275 Z M 34.989 60.076 C 35.885 61.666 36.7 63.01 38.66 63.01 C 40.534 63.01 41.716 62.277 41.716 59.426 L 41.716 40.032 L 47.419 40.032 L 47.419 59.503 C 47.419 65.409 43.957 68.097 38.903 68.097 C 34.336 68.097 31.692 65.733 30.347 62.887 Z" fill="rgb(255, 255, 255)"></path></svg>